<?xml version="1.0" encoding="UTF-8" standalone="no"?>
<!DOCTYPE svg PUBLIC "-//W3C//DTD SVG 1.1//EN"
 "http://www.w3.org/Graphics/SVG/1.1/DTD/svg11.dtd">
<!-- Generated by graphviz version 2.38.0 (20140413.2041)
 -->
<!-- Title: G Pages: 1 -->
<svg width="162pt" height="260pt"
 viewBox="0.00 0.00 162.30 260.00" xmlns="http://www.w3.org/2000/svg" xmlns:xlink="http://www.w3.org/1999/xlink">
<g id="graph0" class="graph" transform="scale(1 1) rotate(0) translate(4 256)">
<title>G</title>
<polygon fill="white" stroke="none" points="-4,4 -4,-256 158.298,-256 158.298,4 -4,4"/>
<!-- 4 -->
<g id="node1" class="node"><title>4</title>
<ellipse fill="none" stroke="black" cx="63" cy="-234" rx="27" ry="18"/>
<text text-anchor="middle" x="63" y="-230.3" font-family="Palatino Linotype,serif" font-weight="roman" font-size="14.00">X</text>
</g>
<!-- 2 -->
<g id="node2" class="node"><title>2</title>
<ellipse fill="none" stroke="black" cx="27" cy="-162" rx="27" ry="18"/>
<text text-anchor="middle" x="27" y="-158.3" font-family="Palatino Linotype,serif" font-weight="roman" font-size="14.00">Y</text>
</g>
<!-- 4&#45;&gt;2 -->
<g id="edge1" class="edge"><title>4&#45;&gt;2</title>
<path fill="none" stroke="black" stroke-dasharray="1,5" d="M54.6504,-216.765C50.2885,-208.283 44.8531,-197.714 39.9587,-188.197"/>
<polygon fill="black" stroke="black" points="42.9904,-186.439 35.3043,-179.147 36.7654,-189.641 42.9904,-186.439"/>
</g>
<!-- 3 -->
<g id="node4" class="node"><title>3</title>
<ellipse fill="none" stroke="black" cx="99" cy="-162" rx="27" ry="18"/>
<text text-anchor="middle" x="99" y="-158.3" font-family="Palatino Linotype,serif" font-weight="roman" font-size="14.00">Y</text>
</g>
<!-- 4&#45;&gt;3 -->
<g id="edge6" class="edge"><title>4&#45;&gt;3</title>
<path fill="none" stroke="black" d="M71.3496,-216.765C75.7115,-208.283 81.1469,-197.714 86.0413,-188.197"/>
<polygon fill="black" stroke="black" points="89.2346,-189.641 90.6957,-179.147 83.0096,-186.439 89.2346,-189.641"/>
</g>
<!-- 0 -->
<g id="node3" class="node"><title>0</title>
<ellipse fill="none" stroke="black" cx="55" cy="-90" rx="27" ry="18"/>
<text text-anchor="middle" x="55" y="-86.3" font-family="Palatino Linotype,serif" font-weight="roman" font-size="14.00">Z</text>
</g>
<!-- 2&#45;&gt;0 -->
<g id="edge7" class="edge"><title>2&#45;&gt;0</title>
<path fill="none" stroke="black" d="M33.6356,-144.411C36.9134,-136.216 40.9442,-126.14 44.6181,-116.955"/>
<polygon fill="black" stroke="black" points="47.9477,-118.055 48.412,-107.47 41.4484,-115.455 47.9477,-118.055"/>
</g>
<!-- false -->
<g id="node6" class="node"><title>false</title>
<ellipse fill="none" stroke="black" cx="51" cy="-18" rx="30.5947" ry="18"/>
<text text-anchor="middle" x="51" y="-14.3" font-family="Palatino Linotype,serif" font-weight="bold" font-size="14.00">false</text>
</g>
<!-- 2&#45;&gt;false -->
<g id="edge2" class="edge"><title>2&#45;&gt;false</title>
<path fill="none" stroke="black" stroke-dasharray="1,5" d="M21.9985,-144.275C17.3774,-126.142 12.1746,-96.5098 19,-72 21.8249,-61.8558 27.1741,-51.7139 32.7019,-43.0581"/>
<polygon fill="black" stroke="black" points="35.6989,-44.8751 38.4288,-34.638 29.9108,-40.9383 35.6989,-44.8751"/>
</g>
<!-- 0&#45;&gt;false -->
<g id="edge3" class="edge"><title>0&#45;&gt;false</title>
<path fill="none" stroke="black" stroke-dasharray="1,5" d="M54.0112,-71.6966C53.5704,-63.9827 53.0407,-54.7125 52.5493,-46.1124"/>
<polygon fill="black" stroke="black" points="56.0423,-45.8883 51.9774,-36.1043 49.0537,-46.2878 56.0423,-45.8883"/>
</g>
<!-- true -->
<g id="node7" class="node"><title>true</title>
<ellipse fill="none" stroke="black" cx="127" cy="-18" rx="27.0966" ry="18"/>
<text text-anchor="middle" x="127" y="-14.3" font-family="Palatino Linotype,serif" font-weight="bold" font-size="14.00">true</text>
</g>
<!-- 0&#45;&gt;true -->
<g id="edge8" class="edge"><title>0&#45;&gt;true</title>
<path fill="none" stroke="black" d="M69.5703,-74.8345C79.7499,-64.9376 93.5239,-51.5462 105.031,-40.3591"/>
<polygon fill="black" stroke="black" points="107.474,-42.865 112.204,-33.3847 102.595,-37.8461 107.474,-42.865"/>
</g>
<!-- 3&#45;&gt;0 -->
<g id="edge4" class="edge"><title>3&#45;&gt;0</title>
<path fill="none" stroke="black" stroke-dasharray="1,5" d="M89.0157,-145.116C83.5026,-136.345 76.5372,-125.264 70.3473,-115.416"/>
<polygon fill="black" stroke="black" points="73.2298,-113.425 64.9448,-106.821 67.3033,-117.15 73.2298,-113.425"/>
</g>
<!-- 1 -->
<g id="node5" class="node"><title>1</title>
<ellipse fill="none" stroke="black" cx="127" cy="-90" rx="27" ry="18"/>
<text text-anchor="middle" x="127" y="-86.3" font-family="Palatino Linotype,serif" font-weight="roman" font-size="14.00">Z</text>
</g>
<!-- 3&#45;&gt;1 -->
<g id="edge9" class="edge"><title>3&#45;&gt;1</title>
<path fill="none" stroke="black" d="M105.636,-144.411C108.913,-136.216 112.944,-126.14 116.618,-116.955"/>
<polygon fill="black" stroke="black" points="119.948,-118.055 120.412,-107.47 113.448,-115.455 119.948,-118.055"/>
</g>
<!-- 1&#45;&gt;false -->
<g id="edge10" class="edge"><title>1&#45;&gt;false</title>
<path fill="none" stroke="black" d="M111.62,-74.8345C100.946,-65.0031 86.5283,-51.7234 74.4315,-40.5816"/>
<polygon fill="black" stroke="black" points="76.6067,-37.8267 66.88,-33.6263 71.8643,-42.9756 76.6067,-37.8267"/>
</g>
<!-- 1&#45;&gt;true -->
<g id="edge5" class="edge"><title>1&#45;&gt;true</title>
<path fill="none" stroke="black" stroke-dasharray="1,5" d="M127,-71.6966C127,-63.9827 127,-54.7125 127,-46.1124"/>
<polygon fill="black" stroke="black" points="130.5,-46.1043 127,-36.1043 123.5,-46.1044 130.5,-46.1043"/>
</g>
</g>
</svg>
